<svg xmlns="http://www.w3.org/2000/svg" viewBox="0 0 26 26">
  <defs>
    <style>
      .cls-1 {
        fill: #707070;
      }
    </style>
  </defs>
  <path id="hollow-cut-facebook" class="cls-1" d="M13,0A13,13,0,1,0,26,13,13,13,0,0,0,13,0Zm1.82,9.594c.91,0,1.872-.026,2.782.026-.026.962,0,1.976-.026,2.938H14.82v9.1h-3.9v-9.1c-.806-.026-1.664,0-2.5-.026V9.568h2.47c.026-.78,0-1.482.052-2.106a3.39,3.39,0,0,1,.546-1.586,3.5,3.5,0,0,1,2.782-1.56c1.04-.052,2.21.026,3.328.026,0,.988.026,2-.026,2.964-.546.026-1.118-.052-1.586,0a1.21,1.21,0,0,0-1.014.7A3.445,3.445,0,0,0,14.82,9.594Z"/>
</svg>
