<svg xmlns="http://www.w3.org/2000/svg" viewBox="0 0 21.953 20">
  <defs>
    <style>
      .cls-1 {
        fill: #707070;
      }
    </style>
  </defs>
  <g id="noun_Basket_Shop_1040146" data-name="noun_Basket Shop_1040146" transform="translate(-359.624 213)">
    <path id="Path_251" data-name="Path 251" class="cls-1" d="M31.912,21.844H29.563L27.8,17.615A2.665,2.665,0,0,0,25.363,16H21.839A2.647,2.647,0,0,0,19.4,17.645l-1.762,4.229H15.29A2.683,2.683,0,0,0,12.676,25.1L14.5,33.856A2.7,2.7,0,0,0,17.111,36H30.092a2.668,2.668,0,0,0,2.614-2.144L34.526,25.1A2.722,2.722,0,0,0,31.912,21.844ZM19.489,31.3V25.927a.589.589,0,0,1,.587-.587.6.6,0,0,1,.587.587V31.3a.589.589,0,0,1-.587.587.58.58,0,0,1-.411-.176A.493.493,0,0,1,19.489,31.3Zm3.524,0V25.985A.589.589,0,0,1,23.6,25.4a.6.6,0,0,1,.587.587V31.33a.589.589,0,0,1-.587.587.58.58,0,0,1-.411-.176A.6.6,0,0,1,23.014,31.3Zm4.7,0a.589.589,0,0,1-.587.587.6.6,0,0,1-.587-.587V25.985a.589.589,0,0,1,.587-.587.6.6,0,0,1,.587.587ZM20.488,18.085a1.465,1.465,0,0,1,1.351-.91h3.524a1.465,1.465,0,0,1,1.351.91L28.3,21.844H18.9Z" transform="translate(347 -229)"/>
  </g>
</svg>
