<svg xmlns="http://www.w3.org/2000/svg" viewBox="0 0 19.526 20">
  <defs>
    <style>
      .cls-1 {
        fill: #1f3971;
      }
    </style>
  </defs>
  <g id="noun_1710790_cc" transform="translate(-27.602 -25.513)">
    <path id="Path_174" data-name="Path 174" class="cls-1" d="M56.7,36.315a1.151,1.151,0,0,0,.352-.8,1.113,1.113,0,0,0-.352-.8L47.021,25.8a1.09,1.09,0,1,0-1.476,1.6l8.806,8.109-8.806,8.108a1.09,1.09,0,0,0,1.476,1.6Z" transform="translate(-9.923)"/>
    <path id="Path_175" data-name="Path 175" class="cls-1" d="M39.109,36.315a1.151,1.151,0,0,0,.352-.8,1.113,1.113,0,0,0-.352-.8L29.43,25.8a1.09,1.09,0,1,0-1.476,1.6l8.806,8.109-8.806,8.108a1.09,1.09,0,0,0,1.476,1.6Z" transform="translate(0)"/>
  </g>
</svg>
