<?xml version="1.0" encoding="UTF-8"?>
<svg width="26px" height="26px" viewBox="0 0 26 26" version="1.1" xmlns="http://www.w3.org/2000/svg" xmlns:xlink="http://www.w3.org/1999/xlink">
    <!-- Generator: Sketch 50.2 (55047) - http://www.bohemiancoding.com/sketch -->
    <title>Ellipse_15</title>
    <desc>Created with Sketch.</desc>
    <defs></defs>
    <g id="Page-1" stroke="none" stroke-width="1" fill="none" fill-rule="evenodd">
        <g id="Apple-TV" transform="translate(-689.000000, -696.000000)" fill="#F0F0F0" fill-rule="nonzero">
            <path d="M702,722 C694.820298,722 689,716.179702 689,709 C689,701.820298 694.820298,696 702,696 C709.179702,696 715,701.820298 715,709 C715,716.179702 709.179702,722 702,722 Z M702,721 C708.627417,721 714,715.627417 714,709 C714,702.372583 708.627417,697 702,697 C695.372583,697 690,702.372583 690,709 C690,715.627417 695.372583,721 702,721 Z M697.14982,712.5 C697.035384,711.386008 696.975,710.212091 696.975,709 C696.975,707.787909 697.035384,706.613992 697.14982,705.5 L690.3,705.5 C690.023858,705.5 689.8,705.276142 689.8,705 C689.8,704.723858 690.023858,704.5 690.3,704.5 L697.269166,704.5 C697.945538,699.543213 699.729113,696 702,696 C704.270887,696 706.054462,699.543213 706.730834,704.5 L713.65,704.5 C713.926142,704.5 714.15,704.723858 714.15,705 C714.15,705.276142 713.926142,705.5 713.65,705.5 L706.85018,705.5 C706.964616,706.613992 707.025,707.787909 707.025,709 C707.025,710.212091 706.964616,711.386008 706.85018,712.5 L713.65,712.5 C713.926142,712.5 714.15,712.723858 714.15,713 C714.15,713.276142 713.926142,713.5 713.65,713.5 L706.730834,713.5 C706.054462,718.456787 704.270887,722 702,722 C699.729113,722 697.945538,718.456787 697.269166,713.5 L690.3,713.5 C690.023858,713.5 689.8,713.276142 689.8,713 C689.8,712.723858 690.023858,712.5 690.3,712.5 L697.14982,712.5 Z M698.159839,712.5 L705.840161,712.5 C705.95969,711.393197 706.025,710.21813 706.025,709 C706.025,707.78187 705.95969,706.606803 705.840161,705.5 L698.159839,705.5 C698.04031,706.606803 697.975,707.78187 697.975,709 C697.975,710.21813 698.04031,711.393197 698.159839,712.5 Z M698.285029,713.5 C698.913998,717.902456 700.415343,721 702,721 C703.584657,721 705.086002,717.902456 705.714971,713.5 L698.285029,713.5 Z M698.285029,704.5 L705.714971,704.5 C705.086002,700.097544 703.584657,697 702,697 C700.415343,697 698.913998,700.097544 698.285029,704.5 Z" id="Ellipse_15"></path>
        </g>
    </g>
</svg>