<?xml version="1.0" encoding="UTF-8"?>
<svg width="25px" height="25px" viewBox="0 0 25 25" version="1.1" xmlns="http://www.w3.org/2000/svg" xmlns:xlink="http://www.w3.org/1999/xlink">
    <!-- Generator: Sketch 50.2 (55047) - http://www.bohemiancoding.com/sketch -->
    <title>ic-heart-circle</title>
    <desc>Created with Sketch.</desc>
    <defs></defs>
    <g id="Page-1" stroke="none" stroke-width="1" fill="none" fill-rule="evenodd">
        <g id="Apple-TV" transform="translate(-735.000000, -697.000000)" fill="#FFFFFF" fill-rule="nonzero">
            <g id="ic-heart-circle" transform="translate(735.000000, 697.000000)">
                <path d="M12.5,8.8817842e-16 C5.59644063,8.8817842e-16 8.8817842e-16,5.59644063 0,12.5 C-8.8817842e-16,19.4035594 5.59644063,25 12.5,25 C19.4035594,25 25,19.4035594 25,12.5 C25,9.18479388 23.6830395,6.00536997 21.3388348,3.66116524 C18.99463,1.3169605 15.8152061,8.8817842e-16 12.5,8.8817842e-16 Z M20.769,20.769 C16.8241653,24.7139237 10.6420086,25.3228871 6.00328277,22.2234731 C1.36455697,19.1240592 -0.43879124,13.1794958 1.6960918,8.02523369 C3.83097484,2.87097155 9.30949588,-0.0574590094 14.7812166,1.03084979 C20.2529373,2.1191586 24.193911,6.92109833 24.194,12.5 C24.19824,15.6022926 22.9655906,18.5782862 20.769,20.769 Z M15.089,7.686 C14.1340779,7.68437467 13.2126824,8.03796245 12.504,8.678 C10.9886563,7.31663585 8.67912265,7.35689613 7.21214839,8.77024869 C5.74517414,10.1836012 5.61898051,12.4900361 6.923,14.055 L6.932,14.066 C7.007,14.15 7.094,14.247 7.186,14.34 L10.862,18.263 C11.2807982,18.7160477 11.8690407,18.9746716 12.486,18.977 C13.1098761,18.9739605 13.7045094,18.7121336 14.128,18.254 L17.799,14.354 C17.8970665,14.2591428 17.9898718,14.1589933 18.077,14.054 C19.0396381,12.8950251 19.2449693,11.2838156 18.603776,9.92044985 C17.9625828,8.5570841 16.5906153,7.68768082 15.084,7.69 L15.089,7.686 Z M13.541,17.701 C13.2702317,17.997183 12.8882875,18.1671373 12.487,18.17 C12.0927549,18.16823 11.7171769,18.0018302 11.451,17.711 L7.775,13.789 L7.77,13.789 L7.77,13.783 C7.697,13.71 7.619,13.624 7.546,13.542 C6.47406939,12.2518215 6.63208247,10.3410018 7.90138282,9.24442871 C9.17068317,8.14785565 11.084191,8.26904842 12.205,9.517 L12.214,9.524 L12.24,9.551 C12.2663956,9.57370544 12.2956428,9.59286739 12.327,9.608 L12.341,9.617 C12.3824799,9.63534758 12.4267782,9.64650669 12.472,9.65 L12.49,9.65 C12.5353645,9.65164702 12.5806783,9.64556009 12.624,9.632 L12.642,9.626 C12.6862011,9.60964646 12.7271644,9.58561017 12.763,9.555 L12.771,9.555 L12.778,9.546 L12.806,9.52 C13.3841724,8.86741828 14.2151412,8.49510348 15.087,8.498 C16.2821317,8.49600059 17.370311,9.18622091 17.8778736,10.2682209 C18.3854362,11.350221 18.2205551,12.6282477 17.455,13.546 L17.455,13.551 C17.3838087,13.6357509 17.3080285,13.7165386 17.228,13.793 L17.228,13.798 L13.541,17.701 Z" id="Path_242"></path>
            </g>
        </g>
    </g>
</svg>