<svg xmlns="http://www.w3.org/2000/svg" viewBox="0 0 16.232 14">
  <g id="Group_73" data-name="Group 73" transform="translate(-21.037 -977.382)">
    <path id="Path_86" data-name="Path 86" d="M32.849,977.382a4.427,4.427,0,0,0-3.135,1.287l-.56.56-.56-.552a4.424,4.424,0,0,0-6.261,6.253q3.117,3.105,6.235,6.209a.841.841,0,0,0,1.182,0l6.226-6.217a4.413,4.413,0,0,0-3.126-7.54Zm0,1.673a2.736,2.736,0,0,1,1.944.806,2.7,2.7,0,0,1,0,3.871l-5.639,5.631q-2.821-2.81-5.639-5.622a2.7,2.7,0,0,1,0-3.871,2.742,2.742,0,0,1,3.9,0l1.147,1.147a.841.841,0,0,0,1.182,0L30.9,979.86A2.756,2.756,0,0,1,32.849,979.054Z" transform="translate(0 0)"/>
  </g>
</svg>
