<svg xmlns="http://www.w3.org/2000/svg" viewBox="0 0 15.003 15">
  <defs>
    <style>
      .cls-1 {
        fill: #fff;
      }
    </style>
  </defs>
  <g id="instagram-grey-icon" transform="translate(0)">
    <path id="Path_132" data-name="Path 132" class="cls-1" d="M11.6,5.451c2,0,2.239.009,3.03.045a4.092,4.092,0,0,1,1.393.259,2.327,2.327,0,0,1,.863.56,2.291,2.291,0,0,1,.56.863A4.169,4.169,0,0,1,17.7,8.571c.036.792.045,1.027.045,3.03s-.009,2.239-.045,3.03a4.092,4.092,0,0,1-.259,1.393,2.327,2.327,0,0,1-.56.863,2.291,2.291,0,0,1-.863.56,4.169,4.169,0,0,1-1.393.259c-.792.036-1.027.045-3.03.045s-2.239-.009-3.03-.045a4.092,4.092,0,0,1-1.393-.259,2.327,2.327,0,0,1-.863-.56,2.291,2.291,0,0,1-.56-.863,4.169,4.169,0,0,1-.259-1.393c-.036-.792-.045-1.027-.045-3.03s.009-2.239.045-3.03a4.092,4.092,0,0,1,.259-1.393,2.327,2.327,0,0,1,.56-.863,2.291,2.291,0,0,1,.863-.56A4.169,4.169,0,0,1,8.568,5.5c.792-.039,1.027-.045,3.03-.045m0-1.351c-2.036,0-2.292.009-3.093.045a5.5,5.5,0,0,0-1.819.348,3.655,3.655,0,0,0-1.328.866,3.72,3.72,0,0,0-.866,1.328,5.5,5.5,0,0,0-.348,1.822c-.036.8-.045,1.054-.045,3.09s.009,2.292.045,3.093a5.532,5.532,0,0,0,.348,1.822,3.655,3.655,0,0,0,.866,1.328,3.72,3.72,0,0,0,1.328.866,5.5,5.5,0,0,0,1.822.348c.8.036,1.054.045,3.093.045s2.292-.009,3.093-.045a5.532,5.532,0,0,0,1.822-.348,3.655,3.655,0,0,0,1.328-.866,3.72,3.72,0,0,0,.866-1.328,5.5,5.5,0,0,0,.348-1.822c.036-.8.045-1.054.045-3.093s-.009-2.292-.045-3.093a5.532,5.532,0,0,0-.348-1.822,3.655,3.655,0,0,0-.866-1.328,3.72,3.72,0,0,0-1.328-.866,5.5,5.5,0,0,0-1.822-.348c-.8-.033-1.06-.042-3.1-.042Z" transform="translate(-4.1 -4.1)"/>
    <path id="Path_133" data-name="Path 133" class="cls-1" d="M130.452,126.6a3.852,3.852,0,1,0,3.852,3.852A3.853,3.853,0,0,0,130.452,126.6Zm0,6.352a2.5,2.5,0,1,1,2.5-2.5A2.5,2.5,0,0,1,130.452,132.952Z" transform="translate(-122.953 -122.953)"/>
    <circle id="Ellipse_8" data-name="Ellipse 8" class="cls-1" cx="0.899" cy="0.899" r="0.899" transform="translate(10.603 2.596)"/>
  </g>
</svg>
