<svg xmlns="http://www.w3.org/2000/svg" viewBox="0 0 14 19.25">
  <defs>
    <style>
      .cls-1 {
        fill: #1e345f;
      }
    </style>
  </defs>
  <path id="mark" class="cls-1" d="M105-6197.75h0a31.771,31.771,0,0,1-3.5-3.943,22.111,22.111,0,0,1-2.406-3.952,10.681,10.681,0,0,1-1.094-4.4,6.865,6.865,0,0,1,.55-2.706,6.929,6.929,0,0,1,1.5-2.209,6.969,6.969,0,0,1,2.225-1.49A7,7,0,0,1,105-6217a7,7,0,0,1,2.725.546,6.969,6.969,0,0,1,2.225,1.49,6.929,6.929,0,0,1,1.5,2.209,6.865,6.865,0,0,1,.55,2.706,10.681,10.681,0,0,1-1.094,4.4,22.11,22.11,0,0,1-2.406,3.952,31.773,31.773,0,0,1-3.5,3.943Zm-3.295-15.7a5.035,5.035,0,0,0-1.129,1.6,4.836,4.836,0,0,0-.428,1.985,4.893,4.893,0,0,0,.435,2.031,4.792,4.792,0,0,0,1.174,1.6,4.976,4.976,0,0,0,3.322,1.3h.519a5.043,5.043,0,0,0,2.446-1.064,4.93,4.93,0,0,0,1.551-2.154,4.864,4.864,0,0,1-1.609,1.246,4.771,4.771,0,0,1-2.076.466,4.745,4.745,0,0,1-3.381-1.395,4.747,4.747,0,0,1-1.395-3.38A4.6,4.6,0,0,1,101.705-6213.448Zm6.8.052h0a5.077,5.077,0,0,1,.312,1.764,5.365,5.365,0,0,1-2.8,4.517,2.126,2.126,0,0,1-.233.129,2.08,2.08,0,0,0-.234.13h.415a4.9,4.9,0,0,0,3.789-1.765l.052-.051a5.352,5.352,0,0,0,.156-1.246,3.942,3.942,0,0,0-.052-.778v-.208A4.744,4.744,0,0,0,108.505-6213.4Zm-3.478-.571a4.183,4.183,0,0,1,1.894.46,4.081,4.081,0,0,1,1.428,1.2,3.408,3.408,0,0,0-1.233-1.746,3.481,3.481,0,0,0-2.089-.694,3.482,3.482,0,0,0-2.089.694,3.408,3.408,0,0,0-1.233,1.746,4.111,4.111,0,0,1,1.447-1.22A4.111,4.111,0,0,1,105.028-6213.967Z" transform="translate(-98 6217)"/>
</svg>
