<svg xmlns="http://www.w3.org/2000/svg" viewBox="0 0 20 27.5">
  <defs>
    <style>
      .cls-1 {
        fill: #f36c24;
      }
    </style>
  </defs>
  <path id="mark-current" class="cls-1" d="M108-6189.5h0a45.368,45.368,0,0,1-5-5.633,31.554,31.554,0,0,1-3.437-5.646,15.256,15.256,0,0,1-1.562-6.29,9.8,9.8,0,0,1,.786-3.865,9.891,9.891,0,0,1,2.143-3.156,9.953,9.953,0,0,1,3.179-2.129A10,10,0,0,1,108-6217a10,10,0,0,1,3.892.78,9.953,9.953,0,0,1,3.179,2.129,9.891,9.891,0,0,1,2.143,3.156,9.809,9.809,0,0,1,.786,3.865,15.256,15.256,0,0,1-1.562,6.29,31.554,31.554,0,0,1-3.438,5.646,45.371,45.371,0,0,1-5,5.633Zm-4.706-22.426a7.191,7.191,0,0,0-1.613,2.28,6.912,6.912,0,0,0-.612,2.836,6.989,6.989,0,0,0,.621,2.9,6.828,6.828,0,0,0,1.678,2.289,7.107,7.107,0,0,0,4.746,1.854h.741a7.2,7.2,0,0,0,3.494-1.52,7.047,7.047,0,0,0,2.215-3.077,6.93,6.93,0,0,1-2.3,1.779,6.8,6.8,0,0,1-2.966.667,6.78,6.78,0,0,1-4.829-1.992,6.781,6.781,0,0,1-1.993-4.829A6.569,6.569,0,0,1,103.294-6211.926Zm9.714.075h0a7.246,7.246,0,0,1,.445,2.52,7.664,7.664,0,0,1-4,6.452,3.044,3.044,0,0,1-.332.185,3.076,3.076,0,0,0-.335.186h.593a7,7,0,0,0,5.413-2.521l.074-.073a7.63,7.63,0,0,0,.223-1.78,5.624,5.624,0,0,0-.074-1.111v-.3A6.775,6.775,0,0,0,113.007-6211.851Zm-4.968-.816a5.972,5.972,0,0,1,2.706.658,5.831,5.831,0,0,1,2.039,1.715,4.867,4.867,0,0,0-1.761-2.494,4.972,4.972,0,0,0-2.984-.991,4.973,4.973,0,0,0-2.985.991,4.867,4.867,0,0,0-1.761,2.494,5.894,5.894,0,0,1,2.067-1.743A5.88,5.88,0,0,1,108.039-6212.667Z" transform="translate(-98 6217)"/>
</svg>
