<svg id="noun_40971_cc" xmlns="http://www.w3.org/2000/svg" viewBox="0 0 14.116 11.575">
  <g id="Group_185" data-name="Group 185" transform="translate(0)">
    <g id="Group_184" data-name="Group 184" transform="translate(0)">
      <path id="Path_169" data-name="Path 169" d="M30.783,129.1a.362.362,0,0,1-.109-.017.305.305,0,0,1-.223-.319l.646-5.87-6.194-.783a.319.319,0,0,1-.287-.275.306.306,0,0,1,.23-.317l13.448-3.979a.353.353,0,0,1,.367.1.284.284,0,0,1,.018.35L31.065,128.96A.343.343,0,0,1,30.783,129.1Zm-4.346-7.41,5.07.641a.312.312,0,0,1,.286.333l-.537,4.881,6.362-9.163Z" transform="translate(-24.615 -117.527)"/>
    </g>
  </g>
</svg>
