<svg xmlns="http://www.w3.org/2000/svg" viewBox="0 0 25 25">
  <defs>
    <style>
      .cls-1 {
        fill: #707070;
      }
    </style>
  </defs>
  <g id="noun_1711896_cc" transform="translate(-11 -11)">
    <g id="Group_103" data-name="Group 103" transform="translate(0 -952.362)">
      <path id="Path_141" data-name="Path 141" class="cls-1" d="M21.259,963.362a10.259,10.259,0,1,0,5.21,19.1l5.16,5.16a2.564,2.564,0,1,0,3.627-3.627l-5.16-5.16a10.257,10.257,0,0,0-8.836-15.469Zm0,1.924a8.336,8.336,0,1,1-8.336,8.335,8.321,8.321,0,0,1,8.336-8.335ZM28.943,980.4l4.949,4.949a.638.638,0,0,1-.9.9l-4.949-4.949A10.418,10.418,0,0,0,28.943,980.4Z"/>
    </g>
  </g>
</svg>
