<svg xmlns="http://www.w3.org/2000/svg" viewBox="0 0 25 25">
  <defs>
    <style>
      .cls-1 {
        fill: #707070;
      }
    </style>
  </defs>
  <path id="Path_157" data-name="Path 157" class="cls-1" d="M-163.4-64.732a3.337,3.337,0,0,1-3.344,3.344,3.337,3.337,0,0,1-3.344-3.344,3.337,3.337,0,0,1,3.344-3.344A3.337,3.337,0,0,1-163.4-64.732Zm9.1,2.932a12.514,12.514,0,0,1-12.5,12.5,12.514,12.514,0,0,1-12.5-12.5,12.514,12.514,0,0,1,12.5-12.5A12.514,12.514,0,0,1-154.3-61.8Zm-2.521,0a9.989,9.989,0,0,0-9.979-9.979,9.989,9.989,0,0,0-9.979,9.979,10.106,10.106,0,0,0,4.321,8.23c.412-3.4,1.8-6.842,5.658-6.842s5.247,3.446,5.658,6.79A10.021,10.021,0,0,0-156.821-61.8Z" transform="translate(179.3 74.3)"/>
</svg>
