<svg xmlns="http://www.w3.org/2000/svg" viewBox="0 0 26 26">
  <defs>
    <style>
      .cls-1 {
        fill: #707070;
      }
    </style>
  </defs>
  <g id="hollow-cut-instagram" transform="translate(0)">
    <path id="Path_150" data-name="Path 150" class="cls-1" d="M43.986,46.437a2.105,2.105,0,1,0-.338-4.186,2.042,2.042,0,0,0-1.768,1.664A2.149,2.149,0,0,0,43.986,46.437Z" transform="translate(-30.96 -31.253)"/>
    <path id="Path_151" data-name="Path 151" class="cls-1" d="M65.454,26.6H63.816a.411.411,0,0,0-.416.416v1.638a.411.411,0,0,0,.416.416h1.638a.411.411,0,0,0,.416-.416V27.016A.4.4,0,0,0,65.454,26.6Z" transform="translate(-46.916 -19.684)"/>
    <path id="Path_152" data-name="Path 152" class="cls-1" d="M13,0A13,13,0,1,0,26,13,13,13,0,0,0,13,0Zm7.306,16.952a3.361,3.361,0,0,1-.7,2.34,2.944,2.944,0,0,1-1.976,1.04c-1.456.1-3.016,0-4.576,0-1.482,0-3.068.1-4.576,0a2.875,2.875,0,0,1-2.73-2.73c-.156-2.028.1-4.42,0-6.6,0-.052.026-.1.078-.1H9.932c.13.078-.1.26-.182.39a3.87,3.87,0,0,0-.416,2.158,3.669,3.669,0,0,0,6.526,1.95,3.71,3.71,0,0,0,.676-3.484,1.949,1.949,0,0,0-.26-.52,1.184,1.184,0,0,1-.208-.494h4.186C20.332,13.026,20.306,14.976,20.306,16.952ZM10.14,13.13A2.94,2.94,0,0,1,11,11a2.649,2.649,0,0,1,1.846-.78,2.818,2.818,0,0,1,3.042,2.47,2.921,2.921,0,0,1-2.418,3.224,5.019,5.019,0,0,1-.884,0A2.838,2.838,0,0,1,10.14,13.13Zm10.166-2.652H16.874a5.606,5.606,0,0,1-1.144,0c-.208-.052-.312-.26-.494-.39a3.866,3.866,0,0,0-2.548-.7,3.131,3.131,0,0,0-1.872.754,2.2,2.2,0,0,1-.494.364,5.85,5.85,0,0,1-1.17,0H5.746c.052-.858-.1-1.69.026-2.418a2.841,2.841,0,0,1,1.2-1.82V9.308H7.54s-.052-2.34.026-3.406c.078-.078.26-.052.364-.13.078,1.092.078,3.536.078,3.536H8.58V5.8c0-.052,0-.1.026-.1H8.97V9.308h.6V5.694c2.444.13,5.59-.156,7.982,0a2.956,2.956,0,0,1,2.158,1.092C20.358,7.618,20.332,8.84,20.306,10.478Z"/>
  </g>
</svg>
