<svg xmlns="http://www.w3.org/2000/svg" viewBox="0 0 26 26">
  <defs>
    <style>
      .cls-1 {
        fill: #707070;
      }
    </style>
  </defs>
  <path id="hollow-cut-pinterest" class="cls-1" d="M13,0A13,13,0,1,0,26,13,13,13,0,0,0,13,0Zm6.24,13.052a6.461,6.461,0,0,1-1.508,2.47,4.656,4.656,0,0,1-3.718,1.326,2.836,2.836,0,0,1-2.132-1.2,33.554,33.554,0,0,1-.936,3.458,10.292,10.292,0,0,1-1.2,2.08c-.13.208-.26.494-.546.546-.65-2.626.286-5.252.832-7.566.078-.286.13-.6.208-.91a4.086,4.086,0,0,0,.208-.858,4.116,4.116,0,0,0-.234-.806,3.2,3.2,0,0,1,.806-3.042,1.791,1.791,0,0,1,1.612-.312c1.2.442.754,2.184.39,3.354a7.953,7.953,0,0,0-.546,2.08,1.653,1.653,0,0,0,1.976,1.482,2.347,2.347,0,0,0,1.248-.6,6.639,6.639,0,0,0,1.612-5.018,3.632,3.632,0,0,0-3.588-3.51C10.608,5.8,8.4,7.774,8.216,10.426a3.138,3.138,0,0,0,.572,2.236,1.051,1.051,0,0,1,.26.442c.026.234-.234,1.274-.468,1.326-.494.13-1.352-.728-1.534-1.014a5.039,5.039,0,0,1-.806-2.808A5.969,5.969,0,0,1,8.268,6.136a7.082,7.082,0,0,1,4.706-1.794A6.45,6.45,0,0,1,19.006,7.28a5.281,5.281,0,0,1,.728,2.314A8.09,8.09,0,0,1,19.24,13.052Z" transform="translate(0)"/>
</svg>
