<svg xmlns="http://www.w3.org/2000/svg" viewBox="0 0 26 26">
  <defs>
    <style>
      .cls-1 {
        fill: #707070;
      }
    </style>
  </defs>
  <path id="hollow-cut-twitter" class="cls-1" d="M13,0A13,13,0,1,0,26,13,13,13,0,0,0,13,0Zm6.942,9.464A10.343,10.343,0,0,1,18.46,15.21a9.72,9.72,0,0,1-3.432,3.458,9.818,9.818,0,0,1-5.486,1.4,9.944,9.944,0,0,1-5.018-1.456.81.81,0,0,1-.234-.182,7.088,7.088,0,0,0,5.278-1.456,3.356,3.356,0,0,1-2.132-.78,3.6,3.6,0,0,1-1.2-1.716A3.49,3.49,0,0,0,7.8,14.43a3.534,3.534,0,0,1-1.976-1.222,3.352,3.352,0,0,1-.832-2.34c.026-.052.1.026.156.052a3.85,3.85,0,0,0,1.43.364A3.551,3.551,0,0,1,5.07,7.774,3.688,3.688,0,0,1,5.512,6.5c.234.234.442.494.676.728A10.134,10.134,0,0,0,12.9,10.244a3.493,3.493,0,0,1,1.716-3.9,3.635,3.635,0,0,1,4.342.676,7.313,7.313,0,0,0,2.262-.858,3.461,3.461,0,0,1-1.56,1.95,7.051,7.051,0,0,0,2.028-.546A7.126,7.126,0,0,1,19.942,9.464Z" transform="translate(0)"/>
</svg>
