<svg xmlns="http://www.w3.org/2000/svg" viewBox="0 0 200 160">
  <defs>
    <style>
      .cls-1, .cls-3, .cls-4, .cls-5 {
        fill: #fff;
      }

      .cls-1 {
        stroke: #1f3971;
        stroke-width: 4px;
      }

      .cls-2 {
        fill: #1f3971;
      }

      .cls-3 {
        font-size: 62px;
        font-family: ProximaNova-Extrabld, Proxima Nova;
      }

      .cls-4 {
        font-size: 12px;
      }

      .cls-4, .cls-5 {
        font-family: ProximaNova-Semibold, Proxima Nova;
        font-weight: 600;
        letter-spacing: 0.2em;
      }

      .cls-5 {
        font-size: 7px;
      }

      .cls-6 {
        fill: #223971;
      }

      .cls-7 {
        stroke: none;
      }

      .cls-8 {
        fill: none;
      }
    </style>
  </defs>
  <g id="Group_331" data-name="Group 331" transform="translate(-583 -220)">
    <g id="Rectangle_112" data-name="Rectangle 112" class="cls-1" transform="translate(583 220)">
      <rect class="cls-7" width="200" height="160"/>
      <rect class="cls-8" x="2" y="2" width="196" height="156"/>
    </g>
    <g id="Group_211" data-name="Group 211" transform="translate(-45.999 -99.205)">
      <rect id="Rectangle_111" data-name="Rectangle 111" class="cls-2" width="132" height="100" transform="translate(663.001 360)"/>
      <text id="_15" data-name="15" class="cls-3" transform="translate(696.001 417)"><tspan x="0" y="0">15</tspan></text>
      <text id="YEAR" class="cls-4" transform="translate(729.001 431)"><tspan x="-18.69" y="0">YEAR</tspan></text>
      <text id="WARRANTY" class="cls-5" transform="translate(705.001 440)"><tspan x="0" y="0">WARRANTY</tspan></text>
      <g id="Group_208" data-name="Group 208" transform="translate(662.999 288)">
        <path id="Path_56" data-name="Path 56" class="cls-6" d="M0,22.1H7.014v2.338c-.234,0-.234.234-.468.234,0,.234-.234.234-.234.468v.7l1.169,5.144.935-5.144v-.935c0-.234-.234-.234-.468-.468V22.1h6.079v2.338c0,.234,0,.468-.234.468,0,.234-.234.468-.234.935L11.223,34.96H3.273L.935,26.309A3.522,3.522,0,0,0,0,24.438V22.1Z" transform="translate(0 29.573)"/>
        <path id="Path_57" data-name="Path 57" class="cls-6" d="M6.6,22.1h7.014v2.338c-.234.234-.468.234-.468.468v6.547c0,.468,0,.7.234.935,0,.234.234.234.468.468v2.338H6.834V32.855c.234-.234.468-.234.468-.468s.234-.468.234-.7V24.672c0-.234-.234-.234-.468-.468V22.1Z" transform="translate(8.832 29.573)"/>
        <path id="Path_58" data-name="Path 58" class="cls-6" d="M17.782,26.776v-1.4c0-.234,0-.468-.234-.468a.859.859,0,0,0-.7-.234.827.827,0,0,0-.935.935v6.079a.827.827,0,0,0,.935.935.827.827,0,0,0,.935-.935v-2.1h5.612v4.209a7.089,7.089,0,0,1-2.338,1.169,20.97,20.97,0,0,1-4.209.468,8.739,8.739,0,0,1-4.676-.935,3.37,3.37,0,0,1-1.871-3.04V26.075a3.474,3.474,0,0,1,1.4-3.04c.935-.7,2.572-.935,4.676-.935a21.393,21.393,0,0,1,3.975.234,17.223,17.223,0,0,1,3.273.935V27.01H17.782Z" transform="translate(13.783 29.573)"/>
        <path id="Path_59" data-name="Path 59" class="cls-6" d="M24.416,31.486h0V25.407c0-.234-.468-.468-.935-.468-.7,0-1.169.234-1.169.935v5.612c0,.468,0,.935.234.935.234.234.468.234.935.234.7,0,.935-.468.935-1.169M16.7,31.253V25.875a3.172,3.172,0,0,1,1.637-3.04c1.169-.7,2.806-.935,5.144-.935s3.975.234,4.91.935a3.333,3.333,0,0,1,1.4,2.806v5.845a3.333,3.333,0,0,1-1.4,2.806c-.935.7-2.806.935-5.144.935s-4.209-.234-5.144-.935a3.216,3.216,0,0,1-1.4-3.04" transform="translate(22.347 29.305)"/>
        <path id="Path_60" data-name="Path 60" class="cls-6" d="M23.834,30.551h5.378v.935c0,.7.234,1.169.935,1.169h.234c.234,0,.468-.234.7-.468,0-.234.234-.468.234-.935s-.7-.935-1.871-1.169c-.935-.234-2.1-.468-3.04-.7a3.584,3.584,0,0,1-2.338-1.637,4.669,4.669,0,0,1-.468-2.1A3.333,3.333,0,0,1,25,22.835a7.859,7.859,0,0,1,4.442-.935h.468a18.049,18.049,0,0,1,3.507.468,13.182,13.182,0,0,1,2.806.935v3.04H31.082v-.7a1,1,0,0,0-1.637-.7c-.234,0-.234.234-.234.468v.234c0,.468.468.935,1.4,1.169a15.123,15.123,0,0,0,2.338.468,6.066,6.066,0,0,1,3.273,1.4,3,3,0,0,1,.935,2.338v.935c0,.234-.234.7-.234.935a3.848,3.848,0,0,1-2.806,2.1,16.789,16.789,0,0,1-3.975.468,8.521,8.521,0,0,1-3.273-.468,5.377,5.377,0,0,1-3.04-1.169Z" transform="translate(31.58 29.305)"/>
        <path id="Path_61" data-name="Path 61" class="cls-6" d="M30,22.1H45.2v5.845H41.223V25.607c0-.234,0-.468-.234-.468a1.024,1.024,0,0,0-.7-.234v6.547a1.406,1.406,0,0,0,.234.935.5.5,0,0,0,.468.468v2.338H34.209V32.855a.5.5,0,0,0,.468-.468c0-.234.234-.468.234-.7V24.906a.859.859,0,0,0-.7.234c0,.234-.234.234-.234.468v2.1H30Z" transform="translate(40.144 29.573)"/>
        <path id="Path_62" data-name="Path 62" class="cls-6" d="M45.016,31.486h0V25.407c0-.234-.468-.468-.935-.468-.7,0-1.169.234-1.169.935v5.612c0,.468,0,.935.234.935.234.234.468.234.935.234.7,0,.935-.468.935-1.169M37.3,31.253V25.875a3.172,3.172,0,0,1,1.637-3.04c1.169-.7,2.806-.935,5.144-.935s3.975.234,4.91.935a3.333,3.333,0,0,1,1.4,2.806v5.845a3.333,3.333,0,0,1-1.4,2.806c-.935.7-2.806.935-5.144.935s-4.209-.234-5.144-.935a3.216,3.216,0,0,1-1.4-3.04" transform="translate(49.912 29.305)"/>
        <path id="Path_63" data-name="Path 63" class="cls-6" d="M44.034,22.1h6.079l3.04,5.845V24.672l-.234-.234V22.1H58.53v2.338c-.234.234-.468.234-.468.468V34.96H52.685l-3.741-5.845v3.04a.5.5,0,0,0,.468.468v2.572H43.8V32.855a.5.5,0,0,0,.468-.468.816.816,0,0,1,.234-.468V25.607c0-.234,0-.468-.234-.468,0-.234-.234-.234-.468-.468V22.1Z" transform="translate(58.61 29.573)"/>
        <path id="Path_64" data-name="Path 64" class="cls-6" d="M50.9,22.1H64.227v4.442H59.083v-.935c0-.234-.234-.468-.468-.7a1.752,1.752,0,0,0-1.169-.234h-.468V27.01h3.507v2.572H56.979v2.572h.468a1.752,1.752,0,0,0,1.169-.234c.234-.234.468-.468.468-.7v-.935h5.144V34.96H50.9V32.622c.234,0,.234-.234.468-.234V25.373A1.786,1.786,0,0,0,50.9,24.2Z" transform="translate(68.111 29.573)"/>
      </g>
    </g>
  </g>
</svg>
